<svg xmlns="http://www.w3.org/2000/svg" viewBox="0 0 630 430" class="svg-logo" width="630" height="430" style="height: auto;"><rect rx="0" ry="0" width="100%" height="100%" fill="rgba(255, 255, 255, 1)"></rect><g data-element="wrapper" transform="translate(-1207.1249244689943 -849.2499244689942) scale(4.95)"><g><g data-element="icon" transform="scale(0.14166679636649243) translate(1870.5859850855438 1217.6450600688072)"><path id="color_x5F_2" fill="#f270b4" d="M18.69,308.898l71.193,41.166L18.69,393.16V308.898z M584.492,175.586    c8.191,0,14.834-6.642,14.834-14.834c0-8.192-6.643-14.833-14.834-14.833c-8.19,0-14.834,6.641-14.834,14.833    C569.658,168.944,576.301,175.586,584.492,175.586z M254.443,286.301c-58.889,17.468-102.965,48.09-122.906,63.763    c19.941,15.661,64.017,46.286,122.906,63.762c45.016,13.359,89.425,16.766,133.029,10.287    c-22.578-66.962-7.544-125.439,0.282-148.054C344.063,269.518,299.559,272.915,254.443,286.301z M532.237,180.989    c-11.737,0-21.249,9.504-21.249,21.231c0,11.735,9.512,21.247,21.249,21.247c11.726,0,21.229-9.512,21.229-21.247    C553.466,190.492,543.962,180.989,532.237,180.989z M578.76,239.65c-11.736,0-21.249,9.512-21.249,21.238    c0,11.726,9.512,21.24,21.249,21.24c11.736,0,21.24-9.514,21.24-21.24C600,249.162,590.496,239.65,578.76,239.65z"></path> <path id="color_x5F_1" fill="#484043" d="M581.492,339.676c-57.875-47.983-119.179-77.868-182.194-88.836    c-50.624-8.803-102.299-5.469-153.602,9.913c-69.322,20.8-118.441,57.603-136.664,72.745l-95.034-56.182    c-4.169-2.461-6.15-2.496-10.356-0.1c-4.204,2.397-3.613,6.872-3.613,11.708v122.27c0,4.837-0.591,9.32,3.613,11.707    c2.074,1.185,2.784,1.787,5.09,1.787c2.373,0,3.95-0.638,6.063-1.886l94.638-56.172c18.218,15.144,67.142,51.937,136.463,72.737    c32.674,9.793,65.389,14.715,98,14.715c18.592,0,37.07-1.604,55.449-4.802c63.024-10.962,124.3-40.855,182.176-88.828    c3.089-2.57,4.875-6.379,4.875-10.387C586.396,346.044,584.592,342.246,581.492,339.676z M18.69,393.16v-84.262l71.193,41.166    L18.69,393.16z M254.443,413.826c-58.889-17.476-102.965-48.1-122.906-63.762c19.941-15.673,64.017-46.295,122.906-63.763    c102.96-30.543,202.769-9.094,296.891,63.763C457.211,422.909,357.403,444.369,254.443,413.826z M449.631,331.347    c0-8.19,6.633-14.833,14.834-14.833c8.191,0,14.832,6.642,14.832,14.833c0,8.201-6.641,14.835-14.832,14.835    C456.264,346.182,449.631,339.548,449.631,331.347z"></path></g><text transform="translate(365 215)" fill="rgba(242, 112, 180, 1)" font-family="Titan One" font-size="64" data-element="company-name"></text></g></g></svg> 